<?xml version="1.0" standalone="no"?>
<!DOCTYPE svg PUBLIC "-//W3C//DTD SVG 20010904//EN"
 "http://www.w3.org/TR/2001/REC-SVG-20010904/DTD/svg10.dtd">
<svg version="1.0" xmlns="http://www.w3.org/2000/svg"
 width="1063.000000pt" height="1280.000000pt" viewBox="0 0 1063.000000 1280.000000"
 preserveAspectRatio="xMidYMid meet">
<g transform="translate(0.000000,1280.000000) scale(0.100000,-0.100000)"
fill="#000000" stroke="none">
<path d="M6680 12385 c-152 -76 -394 -138 -620 -156 -69 -6 -165 -14 -215 -19
-49 -5 -265 -12 -480 -16 -335 -6 -403 -5 -485 9 -52 9 -149 19 -215 23 -115
6 -454 58 -580 90 l-60 14 -95 -40 c-52 -23 -124 -48 -160 -56 -36 -9 -74 -23
-85 -33 -39 -34 -110 -78 -148 -91 -21 -6 -239 -113 -484 -236 l-445 -224
-321 -217 c-311 -209 -580 -413 -719 -545 -115 -110 -233 -250 -261 -312 -25
-54 -98 -302 -525 -1771 -88 -302 -194 -683 -236 -845 -63 -249 -83 -310 -125
-395 -36 -73 -52 -119 -59 -172 -7 -45 -20 -88 -37 -117 -22 -38 -25 -49 -15
-61 7 -8 18 -15 25 -15 7 0 132 -45 277 -101 892 -342 1181 -440 1513 -513 88
-20 169 -38 180 -41 11 -3 34 3 53 15 28 17 32 25 32 61 0 33 13 66 60 148 80
143 84 148 103 132 12 -9 16 -31 16 -82 0 -38 2 -72 5 -77 10 -17 -34 -497
-49 -527 -9 -16 -22 -68 -31 -115 -8 -47 -31 -173 -50 -280 -19 -107 -39 -220
-44 -250 -6 -30 -17 -100 -25 -155 -8 -55 -19 -129 -25 -165 -5 -37 -14 -109
-20 -160 -6 -52 -19 -160 -30 -240 -51 -377 -67 -554 -100 -1070 -15 -248 -18
-287 -40 -515 -22 -224 -56 -481 -110 -825 -11 -69 -22 -163 -25 -210 -10
-171 -25 -676 -30 -1071 l-6 -405 29 -65 c16 -35 73 -126 127 -201 82 -115
105 -140 139 -154 44 -19 30 -18 1121 -45 639 -16 1258 -6 1740 26 880 60 954
67 1540 140 325 41 696 85 825 99 129 14 267 32 305 40 39 9 207 43 375 76
334 65 470 102 470 126 0 8 -8 31 -19 52 -10 20 -25 68 -34 106 -9 37 -25 78
-36 90 -12 12 -28 44 -36 72 -32 110 -85 331 -85 359 0 17 -12 93 -26 170 -14
77 -36 203 -49 280 -13 77 -32 190 -43 250 -11 61 -23 139 -26 175 -4 36 -13
97 -21 135 -8 39 -20 107 -25 152 -16 128 -47 233 -84 288 -70 104 -69 99 -62
305 6 148 4 207 -9 294 -9 60 -18 113 -20 116 -3 4 -9 61 -15 126 -6 66 -19
178 -30 249 -29 194 -60 526 -60 645 0 58 5 186 10 285 17 273 39 625 49 765
8 102 24 727 34 1335 2 117 3 120 25 123 19 3 26 -5 43 -45 12 -26 32 -71 45
-100 13 -28 24 -60 24 -70 0 -42 50 -197 75 -228 l26 -35 186 0 185 0 202 62
c165 50 242 81 431 171 127 60 313 147 415 194 102 46 201 95 220 107 35 24
114 69 273 158 48 28 92 58 97 68 16 30 12 71 -15 150 -14 40 -25 88 -25 105
0 19 -8 39 -20 50 -20 18 -43 84 -99 280 -17 61 -39 135 -48 165 -8 30 -44
152 -78 270 -35 118 -93 319 -130 445 -37 127 -78 266 -90 310 -34 121 -109
384 -180 630 -35 121 -69 240 -75 265 -6 25 -22 79 -35 120 -12 41 -26 110
-30 154 -9 106 -34 171 -112 300 -146 242 -242 355 -389 456 -43 30 -207 121
-364 201 -157 80 -393 206 -525 281 -132 74 -303 170 -380 212 -77 43 -153 85
-170 95 -16 10 -115 64 -220 121 -152 82 -203 116 -255 166 -37 35 -78 66 -95
70 -41 9 -74 27 -127 67 -94 72 -83 71 -178 22z"/>
</g>
</svg>
