<?xml version="1.0" standalone="no"?>
<!DOCTYPE svg PUBLIC "-//W3C//DTD SVG 20010904//EN"
 "http://www.w3.org/TR/2001/REC-SVG-20010904/DTD/svg10.dtd">
<svg version="1.0" xmlns="http://www.w3.org/2000/svg"
 width="1000.000000pt" height="1000.000000pt" viewBox="0 0 1000.000000 1000.000000"
 preserveAspectRatio="xMidYMid meet">
<metadata>
Created by potrace 1.16, written by Peter Selinger 2001-2019
</metadata>
<g transform="translate(0.000000,1000.000000) scale(0.100000,-0.100000)"
fill="#000000" stroke="none">
<path d="M8960 6400 c-170 -47 -264 -73 -365 -100 -60 -16 -141 -38 -180 -48
-38 -11 -115 -32 -170 -47 -55 -14 -149 -40 -210 -57 -60 -16 -150 -41 -200
-54 -49 -13 -121 -32 -160 -43 -38 -11 -119 -33 -180 -49 -60 -16 -155 -42
-210 -57 -55 -15 -138 -37 -185 -50 -47 -12 -130 -35 -185 -50 -55 -15 -129
-35 -165 -45 -36 -9 -119 -32 -185 -49 -66 -18 -151 -41 -190 -52 -38 -11
-119 -33 -180 -49 -60 -16 -141 -38 -180 -48 -38 -11 -115 -32 -170 -47 -55
-14 -149 -40 -210 -57 -60 -16 -150 -41 -200 -54 -49 -13 -121 -32 -160 -43
-38 -11 -124 -34 -190 -52 -66 -17 -149 -40 -185 -49 -158 -43 -273 -75 -375
-102 -60 -16 -141 -38 -180 -49 -38 -11 -119 -33 -180 -49 -60 -16 -141 -38
-180 -48 -38 -11 -115 -32 -170 -47 -55 -14 -149 -40 -210 -57 -60 -16 -139
-38 -175 -47 -366 -100 -423 -111 -586 -111 -297 0 -524 95 -677 283 -127 157
-181 393 -143 628 18 107 43 211 71 289 18 53 93 234 112 270 10 20 10 42 0
29 -2 -2 -37 -45 -78 -95 -41 -49 -87 -107 -104 -129 -16 -21 -48 -61 -71 -89
-22 -28 -78 -105 -125 -171 -335 -471 -517 -831 -594 -1172 -34 -151 -36 -349
-4 -462 45 -161 132 -279 290 -390 125 -89 244 -140 419 -182 74 -18 402 -18
495 0 183 35 379 92 596 175 81 30 643 264 719 299 30 14 109 48 176 75 66 28
145 62 175 75 30 14 113 50 184 80 72 30 265 113 430 185 165 71 397 171 515
221 118 51 233 101 255 111 38 18 171 75 440 189 66 28 134 57 150 66 17 8 84
38 150 66 186 79 378 162 520 224 72 31 175 76 230 100 55 24 159 69 230 100
72 31 173 75 225 97 52 22 118 50 145 63 28 13 90 40 140 60 49 21 114 49 145
63 30 14 100 44 155 67 55 24 159 69 230 100 72 32 159 70 195 85 36 15 88 37
115 50 49 22 136 60 381 164 129 55 154 70 154 92 0 19 -49 17 -130 -6z"/>
</g>
</svg>
